<?xml version="1.0" standalone="no"?>
<!DOCTYPE svg PUBLIC "-//W3C//DTD SVG 20010904//EN"
 "http://www.w3.org/TR/2001/REC-SVG-20010904/DTD/svg10.dtd">
<svg version="1.0" xmlns="http://www.w3.org/2000/svg"
 width="500.000000pt" height="300.000000pt" viewBox="0 0 500.000000 500.000000"
 preserveAspectRatio="xMidYMid meet">
<metadata>
Created by potrace 1.16, written by Peter Selinger 2001-2019
</metadata>
<g transform="translate(0.000000,500.000000) scale(0.100000,-0.100000)"
fill="#FFFFFF" stroke="none">
<path d="M2648 4715 c-11 -11 1 -25 20 -25 47 -1 47 -10 -3 -201 -27 -101 -48
-185 -49 -185 -1 -1 -15 -5 -33 -8 l-31 -7 -53 102 c-80 156 -218 329 -252
316 -32 -12 -109 -256 -127 -406 -6 -47 -12 -86 -13 -87 -1 -1 -14 -5 -28 -9
-22 -5 -28 -2 -39 25 -17 40 -55 70 -91 70 -34 0 -35 0 -9 42 25 42 25 92 0
133 -40 65 -132 72 -242 17 -68 -34 -176 -114 -185 -138 -8 -22 5 -30 29 -15
11 7 24 9 28 4 4 -4 57 -83 118 -174 l111 -166 -25 -12 c-28 -12 -24 -31 7
-31 51 0 214 106 246 161 22 38 69 59 153 67 48 5 65 11 65 22 0 11 -12 15
-47 14 l-48 0 0 40 c0 56 7 63 65 71 46 6 103 18 147 31 13 4 24 -8 42 -45
l26 -50 -36 -11 c-19 -7 -33 -17 -31 -23 5 -14 20 -13 112 5 58 12 81 12 135
2 111 -22 104 -26 130 75 l23 89 28 -10 c25 -9 27 -13 22 -46 -4 -20 -6 -41
-6 -47 0 -53 7 -71 37 -101 40 -40 92 -46 142 -15 38 23 64 86 44 104 -8 8
-14 8 -16 2 -21 -55 -41 -80 -64 -80 -21 0 -25 5 -28 35 -2 19 -1 54 3 78 6
39 10 45 49 62 73 31 104 82 97 159 -5 56 -67 101 -194 140 -72 22 -217 38
-229 26z m310 -91 c87 -43 107 -111 48 -170 -32 -32 -38 -34 -99 -34 -35 0
-79 5 -96 11 -37 13 -37 11 1 152 l21 79 36 -7 c20 -3 60 -17 89 -31z m-682
-96 c22 -29 50 -69 62 -89 l22 -36 -38 -11 c-20 -6 -64 -14 -96 -18 l-59 -7 6
35 c8 54 47 178 55 178 4 0 25 -24 48 -52z m-396 -43 c17 -9 33 -28 40 -49 19
-59 -11 -104 -127 -189 -9 -6 -29 17 -68 78 -31 48 -58 92 -61 98 -5 15 26 35
91 58 62 22 88 23 125 4z m113 -246 c9 -12 17 -37 17 -56 0 -29 -9 -44 -44
-79 -24 -24 -50 -44 -57 -43 -8 0 -35 33 -61 74 -52 82 -52 80 23 115 52 24
96 20 122 -11z"/>
<path d="M3251 4537 c-9 -9 -7 -15 9 -27 19 -15 16 -20 -101 -187 -118 -167
-122 -171 -138 -151 -15 18 -18 19 -30 4 -12 -14 -5 -24 46 -73 75 -75 165
-123 226 -123 37 0 51 5 75 30 35 34 47 76 33 112 -9 24 -9 24 42 20 42 -3 58
1 87 20 85 58 73 149 -35 253 -73 71 -195 141 -214 122z m207 -161 c66 -71 78
-123 42 -169 -31 -39 -78 -44 -142 -14 -29 13 -64 33 -77 44 l-25 20 65 90
c72 102 70 102 137 29z m-187 -178 c59 -44 85 -112 56 -149 -16 -21 -51 -39
-74 -39 -27 0 -123 50 -123 63 0 13 96 147 105 147 3 0 19 -10 36 -22z"/>
<path d="M3680 4174 c0 -8 4 -23 10 -33 8 -16 -13 -33 -160 -131 l-170 -113
-19 24 c-15 19 -22 21 -32 12 -9 -9 -1 -27 38 -80 28 -37 67 -95 88 -128 21
-33 48 -76 60 -95 13 -19 30 -61 39 -93 8 -33 17 -61 20 -64 3 -3 44 2 92 11
48 9 88 15 90 13 1 -1 4 -13 6 -26 3 -22 -3 -27 -46 -40 -57 -18 -102 -56
-112 -95 -11 -44 12 -104 49 -126 38 -24 100 -26 117 -5 15 18 4 23 -60 27
-37 3 -46 7 -48 25 -4 28 27 49 95 64 50 12 55 11 68 -8 33 -48 120 -66 176
-38 48 25 69 70 69 145 0 117 -57 315 -90 315 -15 0 -16 -13 -5 -50 6 -19 -6
-23 -187 -58 -106 -21 -199 -38 -205 -37 -7 0 -13 9 -13 20 0 13 14 27 40 40
70 36 37 57 -35 23 -19 -9 -36 -15 -38 -12 -1 2 -14 22 -28 44 -14 22 -33 52
-43 67 l-17 26 62 43 62 42 40 -46 c37 -44 67 -60 67 -36 0 6 -16 31 -37 55
-21 26 -32 48 -27 53 20 19 164 111 172 111 5 0 30 -26 55 -58 l46 -59 -42
-35 c-33 -28 -39 -39 -30 -48 9 -10 22 -4 62 30 28 23 51 46 51 51 0 6 -22 36
-48 67 -26 32 -74 95 -106 140 -56 80 -76 98 -76 66z m325 -641 c13 -34 17
-148 6 -175 -22 -57 -100 -79 -154 -43 -32 21 -68 93 -75 150 l-4 43 58 12
c33 7 75 16 94 20 55 13 67 11 75 -7z"/>
<path d="M1228 4039 c-22 -55 -113 -236 -138 -276 -12 -18 -12 -25 -2 -35 11
-11 15 -10 22 2 5 8 14 21 19 29 7 11 45 -6 190 -85 159 -87 180 -101 174
-119 -22 -71 11 -66 40 5 13 31 37 81 55 111 18 31 32 59 32 63 0 16 -31 3
-49 -21 l-20 -28 -65 34 c-70 35 -76 47 -51 91 8 14 14 35 15 48 0 40 -26 23
-44 -29 -10 -27 -23 -49 -30 -47 -28 7 -176 93 -176 102 0 8 58 142 67 155 1
2 24 -11 51 -28 51 -33 67 -37 77 -22 5 9 -95 84 -130 97 -11 5 -21 -8 -37
-47z"/>
<path d="M2250 3813 c-55 -9 -151 -46 -206 -79 -80 -48 -118 -86 -166 -166
-42 -71 -58 -78 -58 -25 0 18 -4 38 -9 45 -25 39 -29 -158 -5 -238 29 -97 97
-170 159 -170 14 0 15 3 5 15 -11 13 -6 15 31 15 24 0 87 7 139 15 52 8 113
15 135 15 30 0 36 3 25 10 -25 16 63 12 103 -5 33 -14 40 -13 84 6 26 11 79
29 118 40 81 23 273 37 299 22 14 -7 -4 -12 -70 -17 -48 -3 -114 -13 -147 -22
-69 -18 -173 -62 -164 -70 3 -3 14 -1 24 4 10 5 34 12 53 16 32 5 31 4 -20
-24 -30 -17 -68 -44 -85 -60 l-29 -30 12 -70 c6 -38 13 -75 14 -82 2 -7 -5
-12 -14 -10 -15 2 -14 -4 7 -50 47 -100 30 -119 -110 -122 -82 -1 -79 -2 -210
62 -5 3 1 -7 15 -22 l24 -27 -47 21 c-59 26 -107 27 -179 4 l-57 -17 -40 26
c-23 15 -41 32 -41 38 0 5 5 7 11 3 7 -4 10 -3 7 2 -37 77 -39 85 -28 141 17
96 3 70 -21 -36 -20 -88 -26 -101 -44 -101 -11 0 -37 -5 -57 -11 -45 -12 -59
-45 -34 -81 9 -12 16 -32 16 -43 0 -27 46 -125 72 -152 12 -13 29 -23 38 -23
21 0 52 34 79 87 11 23 26 45 31 48 13 8 50 -22 50 -40 0 -6 20 -43 44 -83
l45 -72 -32 -1 c-18 0 -26 -3 -19 -6 15 -6 42 -56 42 -78 0 -8 -9 -24 -21 -36
-16 -16 -27 -19 -52 -14 -37 8 -60 25 -33 25 23 0 15 24 -9 29 -10 2 -36 -3
-57 -10 -35 -11 -40 -11 -63 11 -14 13 -25 32 -25 42 0 11 -4 16 -10 13 -17
-10 -11 -39 14 -75 23 -34 23 -35 5 -60 -23 -33 -33 -70 -20 -70 6 0 11 -13
11 -29 0 -15 12 -46 26 -67 l26 -38 -32 -58 c-17 -32 -28 -58 -24 -58 5 0 24
15 43 33 34 32 34 32 17 4 -17 -28 -17 -28 3 -17 12 6 21 9 21 8 0 -2 -7 -25
-15 -52 -8 -27 -15 -63 -14 -80 0 -31 0 -31 11 -6 5 14 18 43 28 65 l18 40 0
-131 c1 -119 12 -201 39 -270 11 -28 -15 -6 -41 34 -12 21 -35 66 -49 102 -27
67 -34 56 -18 -27 5 -24 6 -43 4 -43 -7 0 -46 93 -59 145 -8 27 -14 68 -15 90
l-1 40 -11 -30 -11 -30 -7 30 c-4 20 -7 2 -8 -52 -1 -50 3 -83 9 -83 6 0 10
-17 10 -37 0 -23 10 -54 25 -78 25 -41 33 -36 15 11 -17 44 -4 39 31 -13 43
-63 112 -137 172 -184 l48 -38 55 44 c48 40 206 125 230 125 5 0 -4 -11 -21
-24 l-30 -25 48 -47 c54 -54 96 -133 105 -196 5 -43 5 -43 14 -13 5 17 8 99 6
183 -1 84 2 156 8 161 5 5 34 16 64 26 77 25 139 57 189 99 24 20 45 36 47 36
2 0 -5 -23 -16 -50 -40 -103 -13 -269 65 -390 l29 -45 17 90 c9 50 25 113 34
140 46 136 149 281 248 349 31 22 57 40 57 40 0 1 -7 33 -15 71 -8 39 -15 103
-15 144 0 86 -6 85 -72 -12 -97 -143 -28 30 106 262 145 255 174 336 177 511
1 50 4 88 7 85 3 -3 13 -22 23 -43 17 -36 17 -36 18 -9 2 53 -31 181 -61 244
-37 75 -106 149 -168 177 -34 15 -65 21 -126 21 -75 0 -80 1 -60 15 31 22 144
25 190 6 46 -19 49 -19 40 -5 -30 49 -228 67 -314 28 -24 -11 -60 -32 -78 -46
-27 -20 -32 -22 -24 -7 15 27 51 59 102 89 l45 27 -45 -7 c-47 -6 -105 -30
-157 -65 -18 -12 -33 -17 -33 -11 0 13 97 86 133 100 36 14 211 14 260 0 22
-6 41 -8 44 -5 7 7 -121 43 -179 51 -58 8 -156 -10 -217 -38 -25 -12 -70 -45
-98 -74 -29 -30 -53 -50 -53 -45 0 18 59 99 95 131 32 27 34 32 14 26 -67 -21
-140 -72 -175 -124 -14 -21 -24 -29 -24 -19 0 8 15 37 33 64 75 112 270 162
467 119 80 -17 91 -12 19 9 -135 39 -238 46 -332 21 -87 -23 -134 -51 -199
-119 -47 -49 -57 -55 -48 -33 16 43 66 112 95 131 44 29 20 30 -33 1 -55 -30
-114 -83 -139 -126 -25 -42 -34 -35 -16 11 57 145 233 216 476 192 56 -6 111
-13 122 -16 11 -4 6 0 -10 8 -48 22 -177 46 -253 46 -185 0 -317 -64 -403
-195 -26 -40 -39 -53 -39 -39 0 31 49 123 87 160 37 38 36 43 -5 17 -66 -41
-108 -81 -145 -138 -36 -56 -39 -58 -32 -25 10 54 56 121 109 162 79 59 187
90 341 96 107 5 121 7 80 13 -150 21 -300 2 -410 -52 -112 -55 -182 -129 -231
-247 -23 -56 -23 -57 -24 -21 0 53 26 130 61 179 l31 43 -31 -22 c-62 -45
-151 -181 -151 -233 0 -10 -5 -18 -11 -18 -18 0 -5 70 24 133 48 105 128 171
275 227 99 38 106 45 32 33z m751 -936 c46 -31 64 -71 63 -138 -2 -108 -81
-232 -185 -292 -61 -34 -94 -41 -113 -21 -20 19 -20 35 0 104 8 30 19 106 23
168 9 126 21 154 82 184 46 24 89 22 130 -5z m-457 -200 c15 -11 17 -25 14
-80 -3 -58 -1 -65 11 -50 12 16 12 16 6 -7 -13 -45 -34 -78 -92 -146 -34 -41
-48 -62 -34 -54 13 6 25 9 28 7 8 -9 -77 -67 -134 -93 -29 -13 -53 -30 -53
-38 0 -8 -5 -38 -11 -67 l-11 -52 -21 62 c-13 40 -34 77 -59 104 -36 38 -40
37 -22 -9 4 -8 -18 3 -49 26 l-55 41 14 47 c8 25 18 50 22 54 5 5 36 13 70 19
84 15 102 38 102 129 0 47 4 71 15 80 16 13 140 38 201 39 22 1 48 -5 58 -12z
m-483 -807 c5 0 9 24 10 53 l1 52 19 -74 c10 -41 39 -112 64 -159 25 -47 43
-87 41 -90 -6 -5 -57 45 -104 103 -26 33 -36 25 -12 -10 4 -5 10 -19 13 -30 5
-14 -2 -10 -22 13 -15 18 -33 50 -40 71 -12 43 -14 133 -4 171 6 20 9 13 17
-37 5 -35 13 -63 17 -63z m-98 15 c14 72 23 69 35 -14 11 -75 30 -139 66 -223
9 -22 12 -38 6 -38 -12 0 -64 70 -92 123 -26 51 -34 40 -14 -18 21 -63 0 -55
-36 14 -36 68 -38 145 -6 211 l22 45 6 -70 c5 -67 5 -68 13 -30z m191 -3 c3
-3 6 12 6 34 l1 39 28 -60 c15 -33 51 -91 79 -128 29 -37 52 -70 52 -73 0 -10
-57 32 -104 75 l-49 46 29 -50 c26 -47 26 -49 5 -30 -56 48 -96 156 -83 220 5
29 6 28 18 -18 7 -27 15 -51 18 -55z"/>
<path d="M2887 2833 c-29 -12 -39 -23 -47 -51 -14 -51 -13 -239 1 -248 13 -8
56 22 76 53 14 21 13 22 -14 20 -25 -2 -28 1 -25 23 5 38 31 73 49 66 11 -5
13 -2 8 11 -28 67 -29 71 -16 87 20 24 41 19 78 -16 l33 -32 -11 31 c-20 58
-72 80 -132 56z"/>
<path d="M1008 3603 c-2 -4 -3 -60 -3 -123 0 -118 12 -153 30 -91 l10 34 146
-6 c156 -6 204 -18 233 -58 30 -44 17 -115 -28 -151 -29 -24 -94 -23 -126 2
-30 23 -50 26 -50 6 0 -23 58 -58 103 -63 85 -8 167 76 167 172 0 64 -43 140
-97 172 -37 22 -62 27 -156 34 -62 4 -131 8 -154 8 -39 1 -42 3 -45 33 -3 29
-22 49 -30 31z"/>
<path d="M3565 2293 c-41 -10 -62 -52 -35 -68 13 -8 42 14 34 26 -3 5 4 9 15
9 31 0 26 -13 -19 -49 -22 -17 -40 -40 -40 -50 0 -15 10 -18 60 -19 56 -2 61
0 72 23 13 28 4 45 -14 27 -7 -7 -26 -12 -43 -11 -30 0 -30 1 11 19 23 10 45
23 49 29 12 20 -6 49 -37 60 -17 6 -31 10 -32 10 -1 -1 -10 -4 -21 -6z"/>
<path d="M3723 2292 c-48 -7 -70 -84 -37 -130 11 -16 25 -22 55 -22 49 0 79
27 79 73 0 58 -37 88 -97 79z"/>
<path d="M3875 2293 c-43 -11 -62 -54 -29 -67 21 -8 37 2 30 20 -3 9 2 14 14
14 30 0 24 -27 -10 -45 -28 -14 -50 -42 -50 -63 0 -5 30 -8 68 -8 67 1 67 1
70 30 3 26 2 28 -11 17 -9 -7 -31 -11 -49 -9 l-33 3 45 15 c36 12 46 20 48 41
2 14 -3 30 -10 36 -17 14 -58 21 -83 16z"/>
<path d="M4029 2288 c-27 -9 -49 -44 -49 -77 0 -10 9 -30 21 -45 16 -20 29
-26 58 -26 47 0 75 28 75 75 0 58 -49 92 -105 73z"/>
<path d="M1095 2267 c-18 -6 -25 -16 -25 -36 0 -15 5 -32 12 -39 9 -9 9 -12 0
-12 -7 0 -12 -13 -12 -29 0 -28 1 -28 56 -30 63 -1 84 10 84 44 0 27 -15 41
-53 50 -15 4 -27 11 -27 16 0 12 27 11 35 -1 3 -5 15 -10 26 -10 13 0 19 7 19
24 0 21 -5 24 -45 28 -24 2 -56 -1 -70 -5z"/>
<path d="M914 2195 l0 -75 73 0 c71 0 73 1 73 25 0 27 -31 48 -38 27 -5 -17
-32 -15 -32 3 0 8 7 15 15 15 8 0 15 5 15 10 0 6 -7 10 -15 10 -8 0 -15 5 -15
10 0 7 13 8 35 4 33 -6 35 -5 35 20 0 26 -1 26 -73 26 l-73 0 0 -75z"/>
<path d="M1220 2240 c0 -34 16 -39 37 -12 13 15 14 10 9 -45 l-6 -63 45 0 c38
0 45 3 45 19 0 11 -4 23 -10 26 -5 3 -10 22 -10 41 0 19 5 34 10 34 6 0 10 -7
10 -15 0 -8 9 -15 20 -15 16 0 20 7 20 30 l0 30 -85 0 -85 0 0 -30z"/>
<path d="M2152 1145 c-7 -14 -13 -15 -30 -6 -11 6 -41 11 -66 11 -61 0 -100
-33 -100 -84 0 -47 18 -64 100 -90 74 -24 96 -45 75 -70 -34 -41 -161 -2 -161
49 0 14 -4 25 -10 25 -5 0 -10 -22 -10 -50 0 -27 5 -50 10 -50 6 0 10 7 10 17
0 14 2 14 20 -2 29 -26 113 -32 145 -11 62 41 54 112 -16 140 -22 9 -47 16
-57 16 -44 0 -84 65 -52 85 18 11 67 9 99 -5 26 -10 30 -16 25 -36 -11 -44 13
-24 26 21 13 47 9 69 -8 40z"/>
<path d="M2616 1150 c-110 -34 -131 -198 -31 -260 81 -50 181 1 200 103 11 56
-26 124 -79 148 -45 21 -49 21 -90 9z m114 -50 c53 -56 48 -135 -11 -185 -56
-47 -108 -24 -129 57 -32 116 67 206 140 128z"/>
<path d="M2205 1140 c3 -5 13 -10 21 -10 11 0 14 -21 14 -113 0 -108 -1 -114
-22 -125 -19 -9 -10 -11 50 -11 46 -1 71 3 67 9 -3 6 -13 10 -21 10 -12 0 -14
10 -12 43 l3 42 63 3 64 3 -7 -43 c-4 -23 -15 -48 -24 -55 -13 -10 -7 -12 39
-12 51 1 53 2 26 12 -28 11 -28 13 -22 71 3 32 6 83 6 112 0 47 3 54 19 54 11
0 23 5 26 10 4 6 -13 10 -44 10 -28 0 -51 -4 -51 -10 0 -5 7 -10 15 -10 12 0
15 -13 15 -60 l0 -60 -60 0 -60 0 0 60 c0 47 3 60 15 60 8 0 15 5 15 10 0 6
-30 10 -71 10 -44 0 -68 -4 -64 -10z"/>
<path d="M2822 1143 c-6 -2 -10 -9 -7 -13 3 -5 12 -7 20 -3 13 4 15 -13 15
-110 0 -110 -1 -115 -22 -122 -20 -7 -18 -9 15 -12 20 -2 54 -2 75 0 33 3 34
5 14 12 -36 12 -27 57 12 61 67 7 116 49 116 98 0 29 -24 68 -51 82 -27 13
-158 19 -187 7z m200 -43 c36 -44 14 -100 -47 -120 -19 -6 -39 -9 -45 -5 -5 3
-10 40 -10 82 l0 76 42 -6 c27 -4 49 -14 60 -27z"/>
</g>
</svg>
